<svg id="small" xmlns="http://www.w3.org/2000/svg" viewBox="0 0 56 56"><defs><style>.cls-1{fill:#1a1a1a;}.cls-2{fill:#fff;}</style></defs><title>logo-icon-2</title><circle class="cls-1" cx="28" cy="28" r="28"/><path class="cls-2" d="M53.38,83.21a.56.56,0,0,1-.27-1l27-14.89-27-14.89a.56.56,0,1,1,.54-1L81.57,66.79a.56.56,0,0,1,0,1L53.65,83.14A.56.56,0,0,1,53.38,83.21Z" transform="translate(-38.5 -38.5)"/><path class="cls-2" d="M81.3,85.71a3.07,3.07,0,0,1-1.48-.38L51.91,70a3.06,3.06,0,0,1,0-5.36L79.82,49.21A3.06,3.06,0,0,1,84,50.42a3.06,3.06,0,0,1-1.2,4.16L59.72,67.27,82.77,80a3.06,3.06,0,0,1-1.48,5.74Z" transform="translate(-38.5 -38.5)"/><path class="cls-1" d="M81.3,51.34a.56.56,0,0,1,.27,1l-27,14.89,27,14.89a.56.56,0,0,1-.54,1L53.11,67.76a.56.56,0,0,1,0-1L81,51.4a.56.56,0,0,1,.27-.07m0-5a5.58,5.58,0,0,0-2.67.68L50.7,62.41a5.56,5.56,0,0,0,0,9.74L78.62,87.52a5.56,5.56,0,0,0,7.55-2.18A5.56,5.56,0,0,0,84,77.79L64.9,67.27,84,56.76A5.56,5.56,0,0,0,81.3,46.34Z" transform="translate(-38.5 -38.5)"/></svg>